<svg aria-hidden="true" style="position:absolute;width:0;height:0;overflow:hidden" xmlns="http://www.w3.org/2000/svg"><defs><symbol id="group-5" viewBox="0 0 68 32"><path d="M34.491 15.012a2.148 2.148 0 0 1-.44-1.446v-2.097c0-.643.146-1.131.437-1.465s.792-.501 1.502-.499c.667 0 1.141.142 1.421.427.305.363.454.807.42 1.254v.493h-1.193v-.499a2.51 2.51 0 0 0-.035-.489.47.47 0 0 0-.17-.29.69.69 0 0 0-.432-.113.726.726 0 0 0-.455.12.564.564 0 0 0-.198.32c-.034.171-.05.345-.047.518v2.545c-.019.245.034.491.153.715.059.076.142.136.238.173s.203.052.308.04a.65.65 0 0 0 .422-.115.512.512 0 0 0 .178-.309c.028-.169.04-.339.037-.51v-.516h1.193v.471c.034.467-.111.93-.413 1.318-.274.311-.741.467-1.428.467s-1.206-.166-1.5-.512zM39.46 15.033c-.301-.326-.452-.802-.452-1.431v-2.206c0-.623.151-1.094.452-1.414s.805-.479 1.512-.478c.702 0 1.203.159 1.505.478.301.32.455.791.455 1.414v2.206c0 .623-.153 1.101-.46 1.429s-.805.493-1.5.493c-.694 0-1.208-.166-1.512-.491zm2.068-.529c.108-.204.157-.428.143-.653v-2.7c.014-.22-.035-.44-.141-.64-.06-.077-.145-.138-.244-.176s-.208-.051-.315-.037c-.107-.013-.216 0-.316.038s-.184.098-.245.175c-.109.2-.158.42-.143.64v2.713c-.015.224.034.449.143.653.07.069.155.124.252.162a.84.84 0 0 0 .614 0 .728.728 0 0 0 .252-.162v-.013zM44.366 9.569h1.285l.966 4.07.988-4.07h1.25l.126 5.874h-.924l-.099-4.082-.954 4.082h-.741l-.988-4.097-.091 4.097h-.934l.116-5.874zM50.422 9.569h2.001c1.153 0 1.729.556 1.729 1.668 0 1.065-.607 1.597-1.821 1.595h-.682v2.611h-1.235l.007-5.874zm1.71 2.51c.122.013.246.004.363-.028s.225-.086.316-.157a.95.95 0 0 0 .178-.663 1.849 1.849 0 0 0-.059-.533c-.018-.058-.048-.113-.091-.161s-.096-.088-.156-.118a1.287 1.287 0 0 0-.551-.094h-.479v1.755h.479zM55.934 9.569h1.327l1.361 5.874h-1.151l-.269-1.354h-1.184l-.277 1.354h-1.169l1.361-5.874zm1.134 3.839-.462-2.466-.462 2.466h.924zM59.722 9.569h.865l1.655 3.351V9.569h1.025v5.874h-.823l-1.665-3.498v3.498h-1.06l.002-5.874zM65.669 13.203l-1.376-3.626h1.159l.84 2.329.788-2.329h1.134l-1.359 3.626v2.24h-1.186v-2.24zM36.398 18.011v.307H35.39v2.387h-.423v-2.387h-1.013v-.307h2.444zM39.558 20.705h-.326a.138.138 0 0 1-.091-.026.134.134 0 0 1-.054-.062l-.292-.64h-1.398l-.292.64a.173.173 0 0 1-.044.073.152.152 0 0 1-.091.026h-.326l1.235-2.694h.43l1.25 2.683zm-2.045-1h1.166l-.494-1.096a1.974 1.974 0 0 1-.091-.254l-.047.143-.044.113-.489 1.094zM41.688 20.44c.077.003.155.003.232 0 .067-.006.133-.017.198-.032.06-.013.12-.029.178-.049.054-.019.109-.043.166-.066v-.606h-.494c-.012.001-.024-.001-.036-.005s-.022-.009-.031-.017c-.008-.006-.015-.014-.019-.022s-.006-.018-.006-.027v-.207h.959v1.032a1.92 1.92 0 0 1-.83.275c-.12.011-.24.017-.361.017a1.87 1.87 0 0 1-.623-.1 1.507 1.507 0 0 1-.494-.282 1.3 1.3 0 0 1-.319-.427 1.358 1.358 0 0 1-.114-.559 1.39 1.39 0 0 1 .111-.563c.071-.16.18-.305.319-.427a1.5 1.5 0 0 1 .494-.279c.212-.069.436-.103.662-.1.115 0 .23.008.343.023.1.014.199.037.294.068.086.028.169.064.247.107.076.042.148.089.215.141l-.119.166c-.009.015-.023.028-.04.037s-.036.014-.056.014a.17.17 0 0 1-.077-.021 1.33 1.33 0 0 1-.121-.064 1.176 1.176 0 0 0-.166-.073 1.763 1.763 0 0 0-.227-.06 1.935 1.935 0 0 0-.314-.023 1.448 1.448 0 0 0-.477.075.944.944 0 0 0-.593.548c-.11.292-.11.606 0 .898a.956.956 0 0 0 .247.339c.101.092.224.165.361.213.157.047.324.065.489.053zM45.626 20.398h1.349v.307h-1.762v-2.694h.422l-.01 2.387zM48.379 20.705h-.423v-2.694h.423v2.694zM49.95 18.024a.195.195 0 0 1 .064.049l1.806 2.031a.769.769 0 0 1 0-.096v-2.007h.368v2.705h-.212a.199.199 0 0 1-.091-.015.243.243 0 0 1-.067-.051l-1.804-2.029V20.706h-.353v-2.694h.22a.18.18 0 0 1 .069.013zM55.299 18.011v.297h-1.497v.889h1.213v.286h-1.213v.919h1.497v.297h-1.932v-2.688h1.932zM11.027 1.374l18.76 4.599v16.115l-18.76-4.597V1.374zM9.823 0v18.274l21.164 5.19V5.193L9.823.001z"/><path d="M21.166 31.946 0 26.752V8.48l21.166 5.192v18.274z"/><path d="m10.174 1.167 18.515 4.541-7.874 6.8L2.297 7.965l7.877-6.798zM9.823 0 0 8.481l21.166 5.192 9.821-8.481L9.823 0zM22.357 30.918l8.63-7.453-8.63-2.118v9.571z"/></symbol><symbol id="group-4" viewBox="0 0 43 32"><path d="M3.239 26.373a.98.98 0 0 1 .25.665c.008.158-.022.315-.089.46s-.169.275-.298.38a1.788 1.788 0 0 1-1.125.307H0V23.97h1.937c.382-.023.761.076 1.073.28.125.096.224.217.289.354s.095.286.086.435a.923.923 0 0 1-.225.645 1.06 1.06 0 0 1-.589.329c.262.044.499.172.668.36zM.92 25.737h.828a.835.835 0 0 0 .526-.14c.062-.052.111-.116.141-.187s.043-.148.036-.225c.006-.076-.007-.153-.037-.224s-.078-.135-.138-.188a.858.858 0 0 0-.542-.142H.92v1.106zm1.435 1.616c.066-.053.119-.119.153-.193s.049-.155.043-.235c.005-.081-.01-.163-.045-.238s-.088-.142-.155-.195a.907.907 0 0 0-.562-.152H.921v1.159H1.8a.93.93 0 0 0 .556-.146zM7.197 28.185 6.12 26.538h-.405v1.647h-.927V23.97h1.754c.442-.028.879.1 1.221.358.245.229.393.53.417.85s-.078.637-.287.894a1.46 1.46 0 0 1-.837.428l1.147 1.684H7.195zm-1.482-2.222h.758c.526 0 .789-.213.789-.638a.586.586 0 0 0-.193-.473.87.87 0 0 0-.596-.171h-.767l.009 1.283zM12.262 27.337h-1.847l-.326.848h-.972l1.696-4.168h1.05l1.689 4.168h-.972l-.319-.848zm-.247-.639-.675-1.779-.675 1.779h1.349zM18.602 28.185h-.92l-2.062-2.867v2.867h-.918V23.97h.918l2.062 2.883V23.97h.92v4.215zM23.852 27.176c-.19.318-.48.577-.832.743-.4.185-.845.276-1.293.266H20.09V23.97h1.637c.448-.011.891.078 1.293.259.352.163.642.419.832.735.189.343.288.722.288 1.106s-.099.763-.288 1.106zm-1.053-.101c.263-.28.407-.637.407-1.006s-.144-.726-.407-1.006a1.692 1.692 0 0 0-1.152-.358h-.639v2.729h.639a1.7 1.7 0 0 0 1.152-.358zM12.838.522s11.873 4.104 11.621 10.043V20.61s-11.864-4.106-11.617-10.045L12.837.522zM35.037 18.259c2.242-1.413 4.836-2.288 7.544-2.545v-3.145c-3.12 1.101-5.766 3.097-7.544 5.69z"/><path d="M33.69 19.206c1.835-3.384 5.017-5.995 8.891-7.296V2.849S25.672 8.695 26.03 17.153v14.302s.753-.262 1.939-.752c0-.457 0-.918.054-1.382.35-3.926 2.389-7.565 5.668-10.115z"/><path d="M32.081 24.52a13.62 13.62 0 0 1 .592-2.928c-2.042 2.203-3.278 4.936-3.536 7.815-.025.272-.038.544-.045.824a50.77 50.77 0 0 0 3.252-1.569 13.564 13.564 0 0 1-.263-4.141zM32.754 24.571a12.973 12.973 0 0 0 .209 3.75c4.62-2.531 9.811-6.442 9.611-11.168v-.412c-3.301.338-6.389 1.659-8.79 3.76a13.125 13.125 0 0 0-1.03 4.069z"/></symbol><symbol id="group-3" viewBox="0 0 63 32"><path d="M9.783 10.718h-.002c-1.785 0-3.231 1.286-3.231 2.872v.002c0 1.586 1.447 2.872 3.231 2.872h.002c1.785 0 3.231-1.286 3.231-2.872v-.002c0-1.586-1.447-2.872-3.231-2.872z"/><path d="M31.357 8.312c-.005-2.203-.992-4.314-2.744-5.872S24.485.005 22.006 0c-2.479.004-4.856.881-6.609 2.439s-2.741 3.67-2.746 5.873v12.147s18.704-1.851 18.706-12.145v-.002z"/><path d="M0 25.934c.004 1.533.691 3.002 1.911 4.085s2.872 1.695 4.597 1.7c1.724-.004 3.377-.615 4.596-1.699s1.907-2.552 1.912-4.084v-8.452S.001 18.773.001 25.934zm6.507 1.515c-.337 0-.667-.089-.947-.255s-.499-.403-.628-.68-.163-.581-.097-.875.228-.564.466-.775.542-.356.873-.415c.331-.058.673-.028.985.086s.578.309.765.558c.187.249.287.542.287.841.001.199-.043.397-.128.581s-.211.352-.369.493c-.158.141-.346.253-.554.33s-.429.116-.654.116v-.006zM19.66 26.615h-1.256v1.297h-.654v-3.174h2.067v.53h-1.413v.82h1.256v.528zm3.144-.218c0 .312-.055.587-.166.822s-.269.417-.475.545c-.205.128-.44.192-.706.192-.263 0-.498-.063-.704-.19s-.366-.307-.48-.541a1.867 1.867 0 0 1-.172-.811v-.157c0-.312.056-.587.168-.824a1.26 1.26 0 0 1 .477-.547c.206-.128.442-.192.706-.192s.499.064.704.192c.206.126.366.309.477.547.113.237.17.511.17.822v.142zm-.663-.144c0-.333-.06-.586-.179-.759s-.289-.259-.51-.259a.582.582 0 0 0-.508.257c-.119.17-.18.42-.181.75v.155c0 .324.06.576.179.754s.291.268.515.268a.579.579 0 0 0 .506-.257c.118-.173.177-.424.179-.754v-.155zm2.784.826a.331.331 0 0 0-.131-.283c-.087-.067-.244-.137-.471-.209a3.432 3.432 0 0 1-.539-.218c-.36-.195-.541-.457-.541-.787 0-.171.048-.324.144-.458a.945.945 0 0 1 .416-.316c.182-.076.385-.113.61-.113.227 0 .429.041.606.124a.946.946 0 0 1 .412.347c.099.15.148.32.148.51h-.654a.427.427 0 0 0-.137-.338c-.092-.081-.22-.122-.386-.122a.602.602 0 0 0-.373.102.317.317 0 0 0-.133.266c0 .103.052.19.155.259.105.07.258.135.46.196.372.112.643.251.813.416s.255.372.255.619a.767.767 0 0 1-.312.648c-.208.156-.488.233-.839.233-.244 0-.467-.044-.667-.133a1.07 1.07 0 0 1-.46-.368.945.945 0 0 1-.157-.541h.656c0 .35.209.525.628.525a.61.61 0 0 0 .364-.094.313.313 0 0 0 .131-.266zm3.49-1.812h-.972v2.645h-.654v-2.645h-.959v-.53h2.586v.53zm2.285 1.269h-1.256v.85h1.474v.525H28.79v-3.174h2.124v.53h-1.469v.757h1.256v.512zm1.777.214h-.521v1.162h-.654v-3.174h1.18c.375 0 .664.084.868.251s.305.403.305.709a.97.97 0 0 1-.142.543.95.95 0 0 1-.425.344l.687 1.297v.031h-.702l-.595-1.162zm-.521-.53h.528c.164 0 .291-.041.382-.124.09-.084.135-.2.135-.347a.476.476 0 0 0-.129-.353c-.084-.086-.214-.129-.39-.129h-.525v.953zm3.964.574v1.119h-.654v-3.174h1.238c.238 0 .448.044.628.131a.964.964 0 0 1 .419.373c.097.16.146.342.146.547 0 .311-.107.557-.321.737-.212.179-.507.268-.883.268h-.573zm0-.53h.584c.173 0 .305-.041.395-.122.092-.081.137-.198.137-.349 0-.156-.046-.281-.137-.377s-.218-.145-.379-.148h-.6v.996zm4.138.272h-1.256v.85h1.474v.525h-2.128v-3.174h2.124v.53h-1.469v.757h1.256v.512zm3.035-1.269h-.972v2.645h-.654v-2.645h-.959v-.53h2.586v.53zm2.285 1.269h-1.256v.85h1.474v.525h-2.128v-3.174h2.124v.53h-1.469v.757h1.256v.512zm1.777.214h-.521v1.162h-.654v-3.174h1.179c.375 0 .664.084.868.251s.305.403.305.709a.97.97 0 0 1-.142.543.95.95 0 0 1-.425.344l.687 1.297v.031h-.702l-.595-1.162zm-.521-.53h.528c.164 0 .291-.041.382-.124.09-.084.135-.2.135-.347a.476.476 0 0 0-.129-.353c-.084-.086-.214-.129-.39-.129h-.525v.953zm3.843.859a.331.331 0 0 0-.131-.283c-.087-.067-.244-.137-.471-.209a3.375 3.375 0 0 1-.538-.218c-.36-.195-.541-.457-.541-.787 0-.171.048-.324.144-.458a.945.945 0 0 1 .416-.316c.182-.076.385-.113.61-.113.227 0 .429.041.606.124a.946.946 0 0 1 .412.347c.099.15.148.32.148.51h-.654a.427.427 0 0 0-.137-.338c-.092-.081-.22-.122-.386-.122a.602.602 0 0 0-.373.102.317.317 0 0 0-.133.266c0 .103.052.19.155.259.105.07.258.135.46.196.372.112.643.251.813.416s.255.372.255.619a.767.767 0 0 1-.312.648c-.208.156-.488.233-.839.233-.244 0-.467-.044-.667-.133a1.07 1.07 0 0 1-.46-.368.945.945 0 0 1-.157-.541h.656c0 .35.209.525.628.525a.613.613 0 0 0 .364-.094.313.313 0 0 0 .131-.266z"/></symbol><symbol id="group-2" viewBox="0 0 34 32"><path d="M5.125 30.782a.095.095 0 0 1 .064.025l.166.159a1.373 1.373 0 0 1-.467.302c-.21.076-.435.113-.663.108a1.77 1.77 0 0 1-.623-.101 1.37 1.37 0 0 1-.469-.285 1.268 1.268 0 0 1-.303-.44 1.472 1.472 0 0 1-.106-.565 1.31 1.31 0 0 1 .436-1.007c.142-.124.312-.222.499-.287.205-.069.422-.103.642-.101.204-.004.407.027.596.092.165.062.316.148.447.254l-.139.17a.173.173 0 0 1-.035.031.097.097 0 0 1-.056.013.136.136 0 0 1-.06-.018l-.075-.045-.104-.058a1.3 1.3 0 0 0-.139-.056 1.46 1.46 0 0 0-.436-.063 1.328 1.328 0 0 0-.461.076c-.136.048-.26.121-.361.213a.987.987 0 0 0-.235.339 1.155 1.155 0 0 0-.085.448 1.17 1.17 0 0 0 .085.455.994.994 0 0 0 .231.338.938.938 0 0 0 .345.209c.136.049.281.073.428.072.085.001.17-.004.253-.014a1.01 1.01 0 0 0 .548-.233.127.127 0 0 1 .079-.029zM9.923 29.984c.003.191-.035.382-.112.561-.068.163-.174.311-.313.436s-.306.222-.491.286a2.02 2.02 0 0 1-1.263 0 1.454 1.454 0 0 1-.488-.287 1.297 1.297 0 0 1-.316-.44 1.462 1.462 0 0 1 0-1.125c.071-.164.178-.314.316-.442.139-.12.305-.214.488-.276a1.992 1.992 0 0 1 1.263 0c.185.065.351.163.49.287.137.125.243.273.314.435.077.181.115.372.112.565zm-.436 0a1.186 1.186 0 0 0-.079-.451.933.933 0 0 0-.573-.551 1.456 1.456 0 0 0-.918 0 .985.985 0 0 0-.351.213.897.897 0 0 0-.224.338 1.319 1.319 0 0 0 0 .902.926.926 0 0 0 .575.549 1.5 1.5 0 0 0 .918 0 .98.98 0 0 0 .351-.211.933.933 0 0 0 .222-.338c.056-.145.082-.298.079-.451zM13.197 30.457l.044.101c.017-.036.031-.069.048-.101a.95.95 0 0 1 .054-.099l1.062-1.677c.021-.029.039-.047.06-.052a.283.283 0 0 1 .087-.009h.314v2.727h-.372v-2.09a.737.737 0 0 1 0-.094l-1.068 1.7c-.014.025-.035.047-.063.062s-.059.023-.091.023h-.06c-.032 0-.064-.007-.091-.023s-.049-.037-.062-.062l-1.099-1.711v2.19h-.359V28.62h.314a.28.28 0 0 1 .087.009c.026.011.046.03.058.052l1.084 1.678a.624.624 0 0 1 .054.098zM17.192 30.321v1.021h-.415v-2.723h.926a1.95 1.95 0 0 1 .517.06c.134.033.259.091.366.17a.713.713 0 0 1 .208.267.825.825 0 0 1 .071.348.771.771 0 0 1-.301.621 1.062 1.062 0 0 1-.368.18 1.757 1.757 0 0 1-.501.063l-.503-.007zm0-.292h.503c.109.001.218-.013.322-.042a.71.71 0 0 0 .233-.117.526.526 0 0 0 .191-.409c.005-.076-.009-.151-.042-.222s-.082-.134-.145-.186a.889.889 0 0 0-.559-.146h-.503v1.122zM22.776 31.347h-.328a.158.158 0 0 1-.091-.025.17.17 0 0 1-.054-.063l-.282-.659h-1.419l-.293.659a.152.152 0 0 1-.145.088h-.328l1.246-2.727h.432l1.263 2.727zm-2.057-1.013h1.172l-.494-1.11a1.746 1.746 0 0 1-.093-.256l-.048.143a1.404 1.404 0 0 1-.046.116l-.49 1.108zM24.57 28.632a.178.178 0 0 1 .062.049l1.818 2.056V28.62h.372v2.727h-.208a.204.204 0 0 1-.085-.016.24.24 0 0 1-.067-.05l-1.816-2.054a.737.737 0 0 1 0 .094v2.027h-.372v-2.727h.22a.191.191 0 0 1 .075.013zM29.884 30.262v1.083h-.415v-1.083L28.32 28.62h.372a.15.15 0 0 1 .089.023.23.23 0 0 1 .056.061l.719 1.059a1.064 1.064 0 0 1 .127.242l.054-.117a.975.975 0 0 1 .071-.125l.708-1.067a.295.295 0 0 1 .054-.058.14.14 0 0 1 .089-.027h.376l-1.151 1.65zM12.991 24.043c.181.02.364.036.548.05 2.803-1.089 5.174-2.872 6.817-5.126s2.485-4.878 2.421-7.546l-3.089-2.684c.628 2.84.334 5.776-.849 8.479s-3.208 5.067-5.849 6.827z"/><path d="m11.888 23.918.083.014c2.822-1.754 4.974-4.203 6.176-7.03s1.402-5.904.571-8.83l-4.4-3.823c1.78 3.142 2.496 6.659 2.066 10.14s-1.989 6.786-4.496 9.528zM26.81 14.573c-.747 2.931-2.563 5.574-5.177 7.537a16.41 16.41 0 0 1-2.46 1.534c2.128-.543 4.085-1.504 5.718-2.809s2.9-2.917 3.703-4.714l-1.784-1.549z"/><path d="m26.11 14.141-2.541-2.207c-.049 2.517-.872 4.976-2.385 7.123s-3.66 3.902-6.217 5.084h.012c.57 0 1.139-.03 1.705-.088 2.39-.848 4.502-2.196 6.147-3.926s2.771-3.785 3.278-5.985zM12.256 2.637 9.225 0c-2.709.91-5.04 2.509-6.686 4.588S.008 9.13-.001 11.654c.01 2.789 1.09 5.495 3.07 7.69s4.745 3.754 7.859 4.43c2.78-2.943 4.407-6.579 4.646-10.38s-.924-7.569-3.319-10.757zM33.112 13.735c-.011-3.309-1.529-6.479-4.221-8.818s-6.342-3.658-10.15-3.668a16.144 16.144 0 0 0-5.146.832l18.557 16.123c.635-1.425.961-2.941.96-4.469z"/></symbol><symbol id="group-1" viewBox="0 0 25 32"><path d="M10.531 1.806h-.084a9.985 9.985 0 0 0-.388-.014h-.28c-.244 0-.494.006-.741.019a.523.523 0 0 0-.056 0 17.4 17.4 0 0 0-6.471 1.651l-.266.128v13.625l.623-.211a23.32 23.32 0 0 1 1.731-.513 21.155 21.155 0 0 1 4.982-.662v1.79a15.56 15.56 0 0 0-.655.019h-.051a19.948 19.948 0 0 0-3.833.588c-1.59.398-3.124.996-4.566 1.779V2.53A18.3 18.3 0 0 1 5.266.582 18.343 18.343 0 0 1 9.781 0h.263c.314.008.621.022.909.044.759.053 1.511.173 2.249.358v1.762a13.947 13.947 0 0 0-2.179-.329l-.045-.004c-.152-.013-.304-.026-.446-.026zm3.102 1.801c.391.03.796.044 1.205.044a19.352 19.352 0 0 0 4.747-.609c1.589-.4 3.123-.998 4.564-1.781v17.163a18.313 18.313 0 0 1-4.792 1.948 18.486 18.486 0 0 1-4.515.581 13.778 13.778 0 0 1-3.425-.404V3.274c.265.061.537.117.814.164.455.077.934.133 1.401.167zm8.734.133-.623.21c-.573.192-1.15.365-1.731.518a21.098 21.098 0 0 1-5.173.663c-.406 0-.78-.011-1.141-.034l-.497-.033v14.017l.427.038c.395.034.803.052 1.214.052a16.573 16.573 0 0 0 4.074-.527 17.107 17.107 0 0 0 3.184-1.144l.266-.128V3.742zM1.684 25.977a.912.912 0 0 0-.693-.28 1.034 1.034 0 0 0-.4.075.91.91 0 0 0-.512.518 1.023 1.023 0 0 0-.072.387v2.335c-.006.165.026.328.092.479.055.12.135.226.233.313a.815.815 0 0 0 .321.166c.114.032.231.048.349.049a.972.972 0 0 0 .892-.61.951.951 0 0 0 .075-.372v-.261h-.61v.208a.528.528 0 0 1-.036.208.359.359 0 0 1-.089.131.365.365 0 0 1-.128.067.425.425 0 0 1-.128.022.314.314 0 0 1-.286-.125.548.548 0 0 1-.081-.313v-2.177a.738.738 0 0 1 .075-.349.31.31 0 0 1 .299-.141.33.33 0 0 1 .272.131c.068.09.104.2.101.313v.202h.604v-.238a1.093 1.093 0 0 0-.279-.737zM5.31 25.95a1.051 1.051 0 0 0-1.38 0 .961.961 0 0 0-.237.327 1.099 1.099 0 0 0-.089.452v2.239a1.08 1.08 0 0 0 .089.459c.055.12.136.227.237.313a.94.94 0 0 0 .322.197 1.028 1.028 0 0 0 .728 0c.121-.044.233-.111.33-.197a.948.948 0 0 0 .23-.313 1.08 1.08 0 0 0 .089-.459v-2.239a1.08 1.08 0 0 0-.089-.452 1.015 1.015 0 0 0-.23-.327zm-.285 3.019a.405.405 0 0 1-.121.324.445.445 0 0 1-.574 0 .397.397 0 0 1-.121-.324V26.73a.405.405 0 0 1 .121-.324.445.445 0 0 1 .574 0 .397.397 0 0 1 .121.324v2.239zM10.072 29.969V25.73h-.587l-.771 2.244h-.011l-.777-2.244h-.581v4.239h.606V27.39h.011l.593 1.823h.302l.598-1.823h.011v2.579h.606zM13.513 26.027a.84.84 0 0 0-.343-.232 1.363 1.363 0 0 0-.439-.066h-.9v4.239h.604v-1.656h.311c.188.009.376-.031.545-.116a.882.882 0 0 0 .332-.324 1.02 1.02 0 0 0 .139-.369c.024-.16.035-.321.033-.482a2.421 2.421 0 0 0-.059-.606.898.898 0 0 0-.223-.39zm-.312 1.292a.547.547 0 0 1-.056.221.346.346 0 0 1-.156.149.619.619 0 0 1-.285.053h-.275v-1.441h.311a.578.578 0 0 1 .272.053.349.349 0 0 1 .142.157.62.62 0 0 1 .053.236v.282c0 .099.006.2 0 .291h-.006zM16.374 25.73h-.495l-.934 4.239h.604l.177-.911h.823l.177.911h.604l-.957-4.239zm-.557 2.751.297-1.537h.011l.296 1.537h-.604zM20.277 28.284h-.011l-.912-2.554h-.581v4.239h.604V27.42h.012l.923 2.549h.568V25.73h-.604v2.554zM23.968 25.73l-.486 1.685h-.012l-.486-1.685h-.64l.83 2.447v1.792h.604v-1.792l.83-2.447h-.64zM0 31.166h.291v.817h.198v-.817h.29v-.167H.001v.167zM2.447 30.998l-.381.984h.21l.081-.224h.392l.084.224h.215l-.391-.984h-.21zm-.031.595.134-.365.134.365h-.268zM4.866 31.62h.227v.127a.382.382 0 0 1-.234.083.244.244 0 0 1-.209-.093.411.411 0 0 1-.073-.257c0-.219.095-.329.283-.329a.206.206 0 0 1 .222.157l.195-.038c-.042-.192-.181-.289-.417-.289a.495.495 0 0 0-.344.127.494.494 0 0 0-.141.379.532.532 0 0 0 .126.369.477.477 0 0 0 .374.144.59.59 0 0 0 .417-.157v-.388h-.427v.166zM7.337 30.998h-.199v.984h.69v-.167h-.49v-.817zM9.426 30.998h-.199v.984h.199v-.984zM11.469 31.656l-.403-.657h-.193v.984h.185v-.643l.395.643h.198v-.984h-.182v.657zM13.315 31.549h.49v-.167h-.49v-.216h.528v-.167h-.727v.984h.747v-.167h-.548v-.266zM17.792 31.387h-.388v-.388h-.198v.984h.198v-.43h.388v.43h.198v-.984h-.198v.388zM19.649 31.549h.492v-.167h-.492v-.216h.529v-.167h-.727v.984h.746v-.167h-.548v-.266zM22.168 31.549c.171-.027.258-.117.258-.274a.236.236 0 0 0-.096-.219.553.553 0 0 0-.288-.058h-.417v.984h.198v-.412h.039a.261.261 0 0 1 .123.022.21.21 0 0 1 .07.072l.215.313h.237l-.12-.192a.685.685 0 0 0-.218-.236zm-.199-.136h-.146v-.247h.156a.526.526 0 0 1 .201.023c.014.013.026.029.033.046a.133.133 0 0 1-.005.111.128.128 0 0 1-.037.043.547.547 0 0 1-.201.023zM24.067 31.549h.49v-.167h-.49v-.216h.529v-.167h-.729v.984h.747v-.167h-.548v-.266z"/></symbol><symbol id="group" viewBox="0 0 28 32"><path d="m4.085 0 4.771 4.517L0 4.512v21.915h23.149v-8.379l4.766 4.512V.001H4.085zm18.854 17.517L9.411 4.71h13.528v12.807zm-4.2 5.704H3.663V8.482h1.066v13.741h14.01v.998zM7.223 29.344l-.557 1.147-.557-1.147h-.467l.813 1.529v.891h.422v-.891l.811-1.529h-.465zm.7 2.42.196-.563h.938l.198.563h.439l-.916-2.42h-.377l-.914 2.42h.437zm.665-1.906.351 1.004h-.701l.351-1.004zm2.217.946a.55.55 0 0 0-.091.307c0 .204.072.37.214.497.144.126.336.189.575.189s.445-.065.618-.194l.136.161h.469l-.356-.421c.14-.191.209-.435.209-.733h-.351a.973.973 0 0 1-.101.444l-.467-.552.165-.12a.905.905 0 0 0 .251-.253.532.532 0 0 0 .076-.279.496.496 0 0 0-.17-.384.61.61 0 0 0-.432-.156.641.641 0 0 0-.465.166.591.591 0 0 0-.173.449c0 .078.018.158.055.241.038.083.104.184.198.303-.18.129-.3.24-.361.334zm1.092.535a.616.616 0 0 1-.382.136c-.121 0-.217-.035-.289-.105s-.108-.161-.108-.273c0-.13.067-.245.2-.346l.052-.037.529.623zm-.434-1.072c-.114-.141-.171-.258-.171-.351 0-.081.023-.148.07-.201s.109-.08.188-.08c.073 0 .133.023.181.068a.21.21 0 0 1 .072.161.298.298 0 0 1-.103.234l-.052.042-.184.126zm3.94 1.314c.166-.145.262-.347.286-.605h-.419c-.022.173-.075.296-.158.371s-.207.111-.372.111a.468.468 0 0 1-.412-.206c-.093-.137-.14-.337-.14-.598v-.214c.002-.258.052-.454.15-.587a.493.493 0 0 1 .422-.201c.157 0 .277.039.357.116.082.076.133.202.153.376h.419c-.027-.265-.121-.47-.284-.615s-.378-.218-.645-.218a.978.978 0 0 0-.525.141c-.151.094-.267.228-.347.402s-.121.375-.121.603v.226c.003.223.045.418.125.587s.193.299.339.391a.949.949 0 0 0 .51.136c.276 0 .497-.072.663-.216zm2.472-.339c.082-.18.123-.388.123-.625v-.135a1.462 1.462 0 0 0-.126-.62.924.924 0 0 0-.878-.552.957.957 0 0 0-.525.145.939.939 0 0 0-.354.414 1.484 1.484 0 0 0-.125.625v.136c.001.232.043.436.126.613a.962.962 0 0 0 .356.411.98.98 0 0 0 .525.143.97.97 0 0 0 .525-.143.932.932 0 0 0 .352-.412zm-.451-1.368c.102.143.153.349.153.617v.126c0 .273-.05.48-.151.622a.493.493 0 0 1-.429.213.503.503 0 0 1-.432-.218c-.103-.145-.155-.351-.155-.617v-.14c.002-.26.054-.462.156-.603a.496.496 0 0 1 .427-.214c.186 0 .33.072.43.214z"/></symbol><symbol id="linkedin" viewBox="0 0 32 32"><path d="M31.992 32v-.001H32V20.263c0-5.741-1.236-10.164-7.948-10.164-3.227 0-5.392 1.771-6.276 3.449h-.093v-2.913h-6.364v21.364h6.627V21.42c0-2.785.528-5.479 3.977-5.479 3.399 0 3.449 3.179 3.449 5.657v10.401h6.62zM.528 10.636h6.635V32H.528V10.636zM3.843 0C1.722 0 0 1.721 0 3.843s1.721 3.879 3.843 3.879c2.121 0 3.843-1.757 3.843-3.879A3.846 3.846 0 0 0 3.843 0z"/></symbol><symbol id="facebook" viewBox="0 0 18 32"><path d="M13.329 5.313h2.921V.225C15.746.156 14.013 0 11.994 0 7.782 0 4.897 2.649 4.897 7.519V12H.249v5.688h4.648V32h5.699V17.689h4.46l.708-5.688h-5.169V8.082c.001-1.644.444-2.769 2.735-2.769z"/></symbol><symbol id="twitter" viewBox="0 0 36 32"><path d="M35.556 4.976c-1.322.58-2.731.964-4.2 1.151a7.247 7.247 0 0 0 3.207-4.029 14.561 14.561 0 0 1-4.622 1.764 7.306 7.306 0 0 0-5.324-2.307c-4.035 0-7.284 3.276-7.284 7.291 0 .578.049 1.133.169 1.662-6.06-.296-11.422-3.2-15.024-7.624a7.337 7.337 0 0 0-.998 3.684 7.3 7.3 0 0 0 3.238 6.058 7.188 7.188 0 0 1-3.293-.898v.08c0 3.542 2.527 6.484 5.84 7.162-.593.162-1.24.24-1.911.24-.467 0-.938-.026-1.38-.124.944 2.887 3.624 5.009 6.811 5.078a14.647 14.647 0 0 1-9.038 3.109 13.52 13.52 0 0 1-1.744-.1c3.229 2.082 7.056 3.271 11.182 3.271 13.413 0 20.747-11.111 20.747-20.742 0-.322-.011-.633-.027-.942 1.447-1.027 2.662-2.309 3.653-3.784z"/></symbol><symbol id="instagram" viewBox="0 0 32 32"><path d="M31.969 9.408c-.075-1.7-.35-2.869-.744-3.882a7.806 7.806 0 0 0-1.851-2.838A7.867 7.867 0 0 0 26.542.844C25.523.45 24.36.175 22.66.1 20.947.019 20.403 0 16.059 0s-4.888.019-6.595.094c-1.7.075-2.869.35-3.882.744a7.803 7.803 0 0 0-2.838 1.85A7.867 7.867 0 0 0 .9 5.52C.506 6.539.231 7.702.156 9.402c-.081 1.713-.1 2.257-.1 6.601s.019 4.888.094 6.595c.075 1.7.35 2.869.744 3.882a7.895 7.895 0 0 0 1.85 2.838 7.867 7.867 0 0 0 2.832 1.844c1.019.394 2.182.669 3.882.744 1.706.075 2.25.094 6.595.094s4.888-.019 6.595-.094c1.7-.075 2.869-.35 3.882-.744a8.184 8.184 0 0 0 4.682-4.682c.394-1.019.669-2.182.744-3.882.075-1.707.094-2.251.094-6.595s-.006-4.888-.081-6.595zm-2.882 13.065c-.069 1.563-.331 2.407-.55 2.969a5.31 5.31 0 0 1-3.038 3.038c-.563.219-1.413.481-2.969.55-1.688.075-2.194.094-6.464.094s-4.782-.019-6.464-.094c-1.563-.069-2.407-.331-2.969-.55a4.926 4.926 0 0 1-1.838-1.194 4.974 4.974 0 0 1-1.194-1.838c-.219-.563-.481-1.413-.55-2.969-.075-1.688-.094-2.194-.094-6.464s.019-4.782.094-6.464c.069-1.563.331-2.407.55-2.969a4.868 4.868 0 0 1 1.2-1.838A4.974 4.974 0 0 1 6.639 3.55c.563-.219 1.413-.481 2.969-.55 1.688-.075 2.194-.094 6.464-.094 4.276 0 4.782.019 6.464.094 1.563.069 2.407.331 2.969.55a4.914 4.914 0 0 1 1.838 1.194 4.974 4.974 0 0 1 1.194 1.838c.219.563.481 1.413.55 2.969.075 1.688.094 2.194.094 6.464s-.019 4.77-.094 6.458z"/><path d="M16.059 7.783c-4.538 0-8.22 3.682-8.22 8.22s3.682 8.22 8.22 8.22c4.539 0 8.22-3.682 8.22-8.22s-3.682-8.22-8.22-8.22zm0 13.552a5.333 5.333 0 0 1 0-10.664 5.333 5.333 0 0 1 0 10.664zM26.524 7.458a1.919 1.919 0 1 1-3.838 0 1.919 1.919 0 0 1 3.838 0z"/></symbol><symbol id="astronaut" viewBox="0 0 36 32"><path fill="#2196f3" style="fill:var(--color2, #2196f3)" d="M36.1 2.987a.603.603 0 0 0-.486-.409l-2.157-.314-.965-1.955c-.202-.412-.877-.412-1.08 0l-.965 1.955-2.157.314a.603.603 0 0 0-.335 1.026l1.561 1.522-.369 2.149a.604.604 0 0 0 .874.635l1.929-1.015 1.929 1.015a.608.608 0 0 0 .635-.046.602.602 0 0 0 .239-.589l-.369-2.149 1.561-1.522a.601.601 0 0 0 .152-.617zm-2.781 1.498a.603.603 0 0 0-.173.533l.216 1.258-1.13-.594a.605.605 0 0 0-.562 0l-1.13.594.216-1.258a.601.601 0 0 0-.173-.533l-.915-.891 1.263-.184a.6.6 0 0 0 .453-.329l.565-1.144.565 1.144a.6.6 0 0 0 .453.329l1.263.184-.913.891zM29.506 21.049h-1.204v1.204h1.204v-1.204zM29.506 23.458h-1.204v1.204h1.204v-1.204zM30.71 22.253h-1.204v1.204h1.204v-1.204zM28.301 22.253h-1.204v1.204h1.204v-1.204zM25.29 27.673h-1.204v1.204h1.204v-1.204zM25.29 30.082h-1.204v1.204h1.204v-1.204zM26.495 28.877h-1.204v1.204h1.204v-1.204zM24.086 28.877h-1.204v1.204h1.204v-1.204zM18.065 25.264h-1.204v1.204h1.204v-1.204zM18.065 27.673h-1.204v1.204h1.204v-1.204z"/><path fill="#2196f3" style="fill:var(--color2, #2196f3)" d="M19.269 26.469h-1.204v1.204h1.204v-1.204zM16.86 26.469h-1.204v1.204h1.204v-1.204zM6.623 4.791H5.419v1.204h1.204V4.791zM6.623 7.2H5.419v1.204h1.204V7.2zM7.828 5.995H6.624v1.204h1.204V5.995zM5.419 5.995H4.215v1.204h1.204V5.995z"/><path fill="#212121" style="fill:var(--color3, #212121)" d="M27.904 13.805a2.004 2.004 0 0 0-1.342-.796 2.01 2.01 0 0 0-1.513.397l-1.414 1.084-2.143 1.6-1.533-.611c2.734-1.227 4.645-3.961 4.645-7.136 0-4.316-3.526-7.828-7.859-7.828S8.886 4.027 8.886 8.343a7.75 7.75 0 0 0 1.265 4.243l-3.12-.027h-.005c-.01 0-.017.005-.026.005a.556.556 0 0 0-.175.035c-.014.005-.029.008-.043.015l-.022.007-3.65 1.802-.001.001-2.138 1.028a.424.424 0 0 0-.071.04 2.011 2.011 0 0 0 .516 3.596 2.028 2.028 0 0 0 1.557-.145l1.567-.833 2.556-1.32 1.532-.009-6.144 6.114-.002.001-1.511 1.505c-.357.355-.553.827-.553 1.33s.196.975.553 1.331a1.889 1.889 0 0 0 2.664 0l1.484-1.478 1.965-1.468 1.017 1.013-1.989 1.98-.002.001-1.511 1.505c-.357.355-.553.827-.553 1.33s.196.975.553 1.331c.367.365.85.548 1.332.548s.965-.183 1.333-.548l3.931-3.914.001-.002 1.14-1.129-.004-.004c.007-.007.017-.01.025-.017l5.833-6.388 3.919.558a.589.589 0 0 0 .296-.037c.02-.007.037-.017.056-.026.022-.011.044-.017.065-.031l3.628-2.409c.013-.009.02-.023.033-.033.014-.011.033-.016.046-.029l1.436-1.345c.747-.7.85-1.846.239-2.666zM2.405 17.881a.8.8 0 0 1-.63.058.805.805 0 0 1-.24-1.422l1.483-.714.507 1.482-1.12.596zm3.949-2.063-1.748.903-.495-1.449 2.288-1.13-.045 1.675zm17.047-7.475a6.543 6.543 0 0 1-.676 2.89l-4.721-2.144a2.1 2.1 0 0 0-.89-1.567l1.653-5.487c2.684.854 4.634 3.358 4.634 6.309zm-13.31 0c0-3.652 2.986-6.624 6.655-6.624.285 0 .565.024.841.059L15.97 7.145c-.022-.001-.042-.007-.064-.007-1.166 0-2.114.945-2.114 2.108s.948 2.108 2.114 2.108a2.11 2.11 0 0 0 1.827-1.066l4.361 1.981a6.651 6.651 0 0 1-5.348 2.698c-3.669 0-6.655-2.972-6.655-6.624zm6.725.903c0 .498-.408.903-.91.903s-.91-.405-.91-.903.408-.903.91-.903.91.405.91.903zM2.783 26.209a.688.688 0 0 1-.965.001.671.671 0 0 1 0-.954l1.086-1.082.961.957-1.083 1.078zm3.628 4.215a.687.687 0 0 1-.965.001.671.671 0 0 1 0-.954l1.087-1.083.962.957-1.083 1.078zm3.931-3.916-.002.001-1.993 1.987-.962-.957 1.991-1.982v-.001l.002-.001c.045-.045.073-.099.101-.153.008-.016.023-.029.03-.045.019-.046.022-.096.029-.145.004-.028.016-.054.016-.082 0-.04-.014-.079-.023-.119-.007-.036-.007-.073-.021-.108a.582.582 0 0 0-.103-.155c-.011-.013-.016-.03-.028-.043h-.001l-.001-.002-1.814-1.806c-.019-.019-.044-.027-.066-.043a.555.555 0 0 0-.098-.065.57.57 0 0 0-.105-.037.566.566 0 0 0-.116-.022.651.651 0 0 0-.108.005.59.59 0 0 0-.117.023.552.552 0 0 0-.107.051c-.022.013-.048.017-.069.033l-2.002 1.495-1.017-1.013 2.708-2.694 4.923 4.842-1.047 1.038zm7.699-7.922c-.017-.002-.034.004-.051.003a.631.631 0 0 0-.229.032.548.548 0 0 0-.109.053.567.567 0 0 0-.094.069c-.014.013-.032.019-.045.033l-5.304 5.81-4.887-4.806 3.199-3.182a.603.603 0 0 0-.429-1.028v-.001l-2.505.015.031-1.815 3.505.03a7.843 7.843 0 0 0 5.624 2.372c.494 0 .976-.051 1.445-.139.045.036.09.073.146.096l2.721 1.084.172.856.201 1-3.39-.482zm4.563.201-.353-1.759 1.633-1.219 1.069 1.419-2.348 1.56zm4.238-3.196-.946.886-1.051-1.396.939-.72a.823.823 0 0 1 1.155.16.807.807 0 0 1-.096 1.069z"/><path fill="#212121" style="fill:var(--color3, #212121)" d="m15.357 18.816-2.419-2.409a.602.602 0 0 0-.85 0l-2.419 2.409a.607.607 0 0 0 0 .854l2.419 2.409a.6.6 0 0 0 .85 0l2.419-2.409a.602.602 0 0 0 0-.854zm-2.844 1.986-1.566-1.559 1.566-1.559 1.566 1.559-1.566 1.559zM19.379 3.604l-.291 1.169c.08.02 1.962.51 1.962 2.426h1.204c0-2.277-1.881-3.348-2.875-3.596zM22.254 8.404H21.05v1.204h1.204V8.404z"/></symbol><symbol id="diagram" viewBox="0 0 41 32"><path fill="#2196f3" style="fill:var(--color2, #2196f3)" d="M19.348 14.658h1.382v6.219h-1.382v-6.219zM24.876 17.422h1.382v3.455h-1.382v-3.455zM13.82 19.495h1.382v1.382H13.82v-1.382zM9.674 18.804h1.382v2.073H9.674v-2.073z"/><path fill="#212121" style="fill:var(--color3, #212121)" d="M2.073 31.933h33.168a2.073 2.073 0 0 0 2.073-2.073v-2.764a2.073 2.073 0 0 0-2.073-2.073h-.691V7.791l3.925-3.718A2.086 2.086 0 0 0 40.887.746a2.086 2.086 0 0 0-3.38 2.339L34.55 5.888V4.294a2.073 2.073 0 0 0-2.073-2.073H4.837a2.073 2.073 0 0 0-2.073 2.073v20.73h-.691A2.073 2.073 0 0 0 0 27.097v2.764c0 1.145.928 2.073 2.073 2.073zM39.387 1.529a.69.69 0 1 1 0 1.381.69.69 0 0 1 0-1.381zM4.146 4.293a.69.69 0 0 1 .691-.691h27.64a.69.69 0 0 1 .691.691v2.902l-1.382 1.313V5.675a.69.69 0 0 0-.691-.691H6.219a.69.69 0 0 0-.691.691V22.95a.69.69 0 0 0 .691.691h24.876a.69.69 0 0 0 .691-.691V10.409L33.168 9.1v15.923H4.146V4.293zm6.219 8.983a2.071 2.071 0 0 0-1.064 3.855 2.072 2.072 0 0 0 2.499-.293l2.402 1.205a.69.69 0 0 0 .825-.159l5.106-5.744 5.019 3.761a.69.69 0 0 0 .889-.051l4.362-4.132v10.54H6.909V6.365h23.494v3.449l-4.889 4.63-5.061-3.794a.691.691 0 0 0-.931.094l-5.176 5.824-1.935-.968c.014-.083.023-.167.026-.251a2.073 2.073 0 0 0-2.073-2.073zm.691 2.073a.69.69 0 1 1-1.381 0 .69.69 0 0 1 1.381 0zm4.146 11.056h6.91v.691a.69.69 0 0 1-.691.691h-5.528a.69.69 0 0 1-.691-.691v-.691zm-13.82.691a.69.69 0 0 1 .691-.691H13.82v.691c0 1.145.928 2.073 2.073 2.073h5.528a2.073 2.073 0 0 0 2.073-2.073v-.691h11.747a.69.69 0 0 1 .691.691v2.764a.69.69 0 0 1-.691.691H2.073a.69.69 0 0 1-.691-.691v-2.764z"/></symbol><symbol id="clock" viewBox="0 0 31 32"><path fill="#212121" style="fill:var(--color3, #212121)" d="M30.609 15.301C30.607 6.849 23.754-.002 15.301 0S-.002 6.855 0 15.308a15.304 15.304 0 0 0 10.649 14.576.668.668 0 0 0 .53-.065.637.637 0 0 0 .283-.356l3.865-12.25a1.912 1.912 0 1 0-.84-3.635L9.381 8.471a.637.637 0 0 0-.902.902l5.103 5.109a1.876 1.876 0 0 0 .536 2.309l-3.683 11.673C3.157 25.783-.569 17.71 2.112 10.432S12.866-.572 20.144 2.109s11.004 10.754 8.323 18.032a14.042 14.042 0 0 1-7.462 7.973l-.398-1.874a.638.638 0 0 0-1.048-.344l-3.837 3.426a.637.637 0 0 0 .231 1.084l4.899 1.563a.638.638 0 0 0 .819-.74l-.391-1.839a15.255 15.255 0 0 0 9.329-14.089zm-15.304-.637a.638.638 0 1 1 0 1.277.638.638 0 0 1 0-1.277zm2.1 14.864 2.184-1.948.603 2.84-2.787-.892z"/><path fill="#2196f3" style="fill:var(--color2, #2196f3)" d="M14.44 3.185V4.46a.638.638 0 1 0 1.276 0V3.185a.638.638 0 0 0-1.276 0zM2.962 14.664a.638.638 0 0 0 0 1.276h1.275a.638.638 0 1 0 0-1.276H2.962zM27.194 15.939a.638.638 0 1 0 0-1.276h-1.275a.638.638 0 0 0 0 1.276h1.275z"/></symbol><symbol id="antenna" viewBox="0 0 30 32"><path fill="#212121" style="fill:var(--color3, #212121)" d="m29.702 22.098-8.443-8.505.937-4.615c.242.094.499.144.758.146h.006a2.159 2.159 0 1 0-2.008-1.435l-4.96.605L7.901.161a.534.534 0 0 0-.377-.16.532.532 0 0 0-.373.155L5.638 1.66a.534.534 0 0 0 0 .754l.814.826a14.943 14.943 0 0 0 2.519 17.663.513.513 0 0 0 .146.098c-.034.18-.051.364-.052.547v6.187h-6.4a2.67 2.67 0 0 0-2.667 2.667v1.067c0 .295.239.533.533.533h24.533a.533.533 0 0 0 .533-.533v-1.067a2.67 2.67 0 0 0-2.667-2.667h-6.4v-2.742a15.09 15.09 0 0 0 3.049.32 14.854 14.854 0 0 0 7.04-1.783l.818.823a.534.534 0 0 0 .377.16.532.532 0 0 0 .373-.155l1.513-1.504a.534.534 0 0 0 0-.754zM22.209 6.233a1.066 1.066 0 1 1 .752 1.822h-.003a1.067 1.067 0 0 1-.747-1.823h-.002zm-1.255 3.505-.598 2.946-1.175-1.182 1.774-1.763zm-.606-.902-1.92 1.909-1.485-1.493 3.405-.415zM22.933 28.8a1.6 1.6 0 0 1 1.6 1.6v.533H1.066V30.4a1.6 1.6 0 0 1 1.6-1.6h20.267zm-7.466-2.133v1.067h-5.333v-1.067h5.333zM10.133 25.6v-4.053c0-1.294 1.196-2.347 2.667-2.347s2.667 1.053 2.667 2.347V25.6h-5.333zm6.4-1.696v-2.357c0-1.882-1.675-3.413-3.733-3.413a3.8 3.8 0 0 0-3.281 1.786A13.87 13.87 0 0 1 7.24 4.033l18.602 18.708a13.818 13.818 0 0 1-9.309 1.163zm11.289-.684L6.765 2.039l.755-.752 7.935 7.98c.004 0 .006.007.01.01L28.58 22.468l-.757.752z"/><path fill="#2196f3" style="fill:var(--color2, #2196f3)" d="M12.805 20.267H12.8a1.6 1.6 0 1 0-.004 3.2h.005a1.6 1.6 0 1 0 .004-3.2zm.373 1.978a.533.533 0 1 1-.378-.911.532.532 0 0 1 .373.911h.005z"/></symbol><symbol id="smartphone" viewBox="0 0 20 32"><path d="M17 0H3C1.346 0 0 1.346 0 3v26c0 1.654 1.346 3 3 3h14c1.654 0 3-1.346 3-3V3c0-1.654-1.346-3-3-3zM3 2h14a1 1 0 0 1 1 1v21H2V3a1 1 0 0 1 1-1zm14 28H3a1 1 0 0 1-1-1v-3h16v3a1 1 0 0 1-1 1z"/></symbol><symbol id="envelope" viewBox="0 0 43 32"><path d="M38.667 0H4C1.794 0 0 1.794 0 4v24c0 2.206 1.794 4 4 4h34.667c2.206 0 4-1.794 4-4V4c0-2.206-1.794-4-4-4zm0 2.667c.181 0 .353.038.511.103L21.334 18.236 3.49 2.77a1.32 1.32 0 0 1 .511-.103h34.667zm0 26.666H4A1.334 1.334 0 0 1 2.667 28V5.587L20.46 21.008a1.335 1.335 0 0 0 1.748 0L40.001 5.587V28c0 .736-.598 1.333-1.333 1.333z"/></symbol><symbol id="icon-close" viewBox="0 0 32 32"><path d="M32 3.223l-3.223-3.223-12.777 12.777-12.777-12.777-3.223 3.223 12.777 12.777-12.777 12.777 3.223 3.223 12.777-12.777 12.777 12.777 3.223-3.223-12.777-12.777 12.777-12.777z"></path></symbol><symbol id="icon-mail-modal" viewBox="0 0 32 32"><path d="M26.667 5.333h-21.333c-1.467 0-2.652 1.2-2.652 2.667l-0.014 16c0 1.467 1.2 2.667 2.667 2.667h21.333c1.467 0 2.667-1.2 2.667-2.667v-16c0-1.467-1.2-2.667-2.667-2.667zM26.133 11.001l-9.426 5.892c-0.201 0.126-0.446 0.2-0.708 0.2s-0.506-0.075-0.713-0.204l0.006 0.003-9.426-5.892c-0.336-0.201-0.557-0.562-0.557-0.975 0-0.625 0.507-1.132 1.132-1.132 0.233 0 0.449 0.070 0.629 0.19l-0.004-0.003 8.933 5.586 8.933-5.588c0.176-0.118 0.392-0.188 0.624-0.188 0.625 0 1.132 0.507 1.132 1.132 0 0.413-0.221 0.775-0.552 0.972l-0.005 0.003z"></path></symbol><symbol id="icon-name-modal" viewBox="0 0 32 32"><path d="M16 16c2.946 0 5.333-2.388 5.333-5.333s-2.388-5.333-5.333-5.333v0c-2.946 0-5.333 2.388-5.333 5.333s2.388 5.333 5.333 5.333v0zM16 18.667c-3.561 0-10.667 1.787-10.667 5.333v1.333c0 0.732 0.599 1.333 1.333 1.333h18.667c0.732 0 1.333-0.601 1.333-1.333v-1.333c0-3.547-7.108-5.333-10.667-5.333z"></path></symbol><symbol id="icon-phone-modal" viewBox="0 0 32 32"><path d="M24.882 19.774l-3.268-0.373c-0.090-0.011-0.194-0.018-0.3-0.018-0.707 0-1.347 0.287-1.81 0.75l-2.368 2.368c-3.669-1.894-6.585-4.81-8.427-8.372l-0.051-0.108 2.382-2.377c0.463-0.463 0.75-1.103 0.75-1.81 0-0.106-0.006-0.21-0.019-0.312l0.001 0.012-0.373-3.243c-0.155-1.287-1.24-2.276-2.557-2.276-0.001 0-0.002 0-0.003 0h-2.226c-1.454 0-2.663 1.209-2.574 2.661 0.683 10.987 9.47 19.762 20.444 20.444 1.452 0.089 2.663-1.12 2.663-2.574v-2.226c0-0.004 0-0.008 0-0.012 0-1.308-0.985-2.386-2.253-2.532l-0.012-0.001z"></path></symbol><symbol id="icon-send" viewBox="0 0 32 32"><path fill="#fff" style="fill: var(--color1, #fff)" d="M32 0l-32 18 10.227 3.787 15.773-14.787-11.997 16.187 0.009 0.003-0.012-0.003v8.813l5.735-6.691 7.267 2.691 4.999-28z"></path></symbol></defs></svg>
